{"title":"The.Lady.In.The.Car.With.Glasses.And.A.Gun.1080p.BluRay-RiS","uid":14324581,"size":3236279280,"categoryP":"video","categoryS":"hd___movies","magnet":"?xt=urn:btih:1a87f5d1c6bbd0123107934b951b6455ff983242&amp;dn=The.Lady.In.The.Car.With.Glasses.And.A.Gun.1080p.BluRay-RiS&amp;tr=udp%3A%2F%2Ftracker.leechers-paradise.org%3A6969&amp;tr=udp%3A%2F%2Fzer0day.ch%3A1337&amp;tr=udp%3A%2F%2Fopen.demonii.com%3A1337&amp;tr=udp%3A%2F%2Ftracker.coppersurfer.tk%3A6969&amp;tr=udp%3A%2F%2Fexodus.desync.com%3A6969","seeders":2,"leechers":3,"uploader":"TheDeb","files":1,"time":1460639424,"description":"Format                                   : Matroska\r\nFormat version                           : Version 2\r\nFile size                                : 3.01 GiB\r\nDuration                                 : 1h 35mn\r\nOverall bit rate                         : 4 539 Kbps\r\n\r\n\r\nVideo\r\nID                                       : 1\r\nFormat                                   : AVC\r\nBit rate                                 : 3 000 Kbps\r\nWidth                                    : 1 920 pixels\r\nHeight                                   : 800 pixels\r\nDisplay aspect ratio                     : 2.40:1\r\nFrame rate mode                          : Constant\r\nFrame rate                               : 23.976 fps\r\n\r\n\r\nAudio 1\r\nID                                       : 2\r\nFormat                                   : DTS\r\nFormat/Info                              : Digital Theater Systems\r\nBit rate mode                            : Constant\r\nBit rate                                 : 768 Kbps\r\nChannel(s)                               : 6 channels\r\nSampling rate                            : 48.0 KHz\r\nStream size                              : 522 MiB (17%)\r\nLanguage                                 : English\r\n\r\nAudio 2\r\nID                                       : 3\r\nFormat                                   : DTS\r\nBit rate mode                            : Constant\r\nBit rate                                 : 768 Kbps\r\nChannel(s)                               : 6 channels\r\nSampling rate                            : 48.0 KHz\r\nStream size                              : 522 MiB (17%)\r\nLanguage                                 : French\r\n\r\nSCREENS:\r\n \nhttps://extraimago.com/images/2016/04/14/2.png \nhttps://extraimago.com/images/2016/04/14/1.png \nhttps://extraimago.com/images/2016/04/14/3.png \nhttps://extraimago.com/images/2016/04/14/5.png \nhttps://extraimago.com/images/2016/04/14/4.png","torrent":{"xt":"urn:btih:1a87f5d1c6bbd0123107934b951b6455ff983242","amp;dn":"The.Lady.In.The.Car.With.Glasses.And.A.Gun.1080p.BluRay-RiS","amp;tr":["udp%3A%2F%2Ftracker.leechers-paradise.org%3A6969","udp%3A%2F%2Fzer0day.ch%3A1337","udp%3A%2F%2Fopen.demonii.com%3A1337","udp%3A%2F%2Ftracker.coppersurfer.tk%3A6969","udp%3A%2F%2Fexodus.desync.com%3A6969"],"infoHash":"1a87f5d1c6bbd0123107934b951b6455ff983242","infoHashBuffer":{"type":"Buffer","data":[26,135,245,209,198,187,208,18,49,7,147,75,149,27,100,85,255,152,50,66]},"announce":[],"urlList":[]}}